<?xml version="1.0" encoding="UTF-8" standalone="no"?>
<!DOCTYPE svg PUBLIC "-//W3C//DTD SVG 1.1//EN"
 "http://www.w3.org/Graphics/SVG/1.1/DTD/svg11.dtd">
<!-- Generated by graphviz version 9.0.0 (20230911.1827)
 -->
<!-- Title: Project Architecture Pages: 1 -->
<svg width="1782pt" height="1348pt"
 viewBox="0.00 0.00 1782.00 1347.80" xmlns="http://www.w3.org/2000/svg" xmlns:xlink="http://www.w3.org/1999/xlink">
<g id="graph0" class="graph" transform="scale(1 1) rotate(0) translate(144 1203.8)">
<title>Project Architecture</title>
<polygon fill="white" stroke="none" points="-144,144 -144,-1203.8 1638,-1203.8 1638,144 -144,144"/>
<text text-anchor="middle" x="747" y="-7.75" font-family="Sans-Serif" font-size="15.00" fill="#2d3436">Project Architecture</text>
<g id="clust1" class="cluster">
<title>cluster_Pipeline Orchestration</title>
<path fill="#e5f5fd" stroke="#aeb6be" d="M313.6,-612.4C313.6,-612.4 878.8,-612.4 878.8,-612.4 884.8,-612.4 890.8,-618.4 890.8,-624.4 890.8,-624.4 890.8,-813.4 890.8,-813.4 890.8,-819.4 884.8,-825.4 878.8,-825.4 878.8,-825.4 313.6,-825.4 313.6,-825.4 307.6,-825.4 301.6,-819.4 301.6,-813.4 301.6,-813.4 301.6,-624.4 301.6,-624.4 301.6,-618.4 307.6,-612.4 313.6,-612.4"/>
<text text-anchor="middle" x="373.35" y="-810" font-family="Sans-Serif" font-size="12.00" fill="#2d3436">Pipeline Orchestration</text>
</g>
<g id="clust2" class="cluster">
<title>cluster_Pipelines</title>
<path fill="#ebf3e7" stroke="#aeb6be" d="M468.4,-620.4C468.4,-620.4 870.8,-620.4 870.8,-620.4 876.8,-620.4 882.8,-626.4 882.8,-632.4 882.8,-632.4 882.8,-783.4 882.8,-783.4 882.8,-789.4 876.8,-795.4 870.8,-795.4 870.8,-795.4 468.4,-795.4 468.4,-795.4 462.4,-795.4 456.4,-789.4 456.4,-783.4 456.4,-783.4 456.4,-632.4 456.4,-632.4 456.4,-626.4 462.4,-620.4 468.4,-620.4"/>
<text text-anchor="middle" x="489.15" y="-780" font-family="Sans-Serif" font-size="12.00" fill="#2d3436">Pipelines</text>
</g>
<g id="clust3" class="cluster">
<title>cluster_App</title>
<path fill="#e5f5fd" stroke="#aeb6be" d="M1079.6,-170.4C1079.6,-170.4 1343.2,-170.4 1343.2,-170.4 1349.2,-170.4 1355.2,-176.4 1355.2,-182.4 1355.2,-182.4 1355.2,-903.4 1355.2,-903.4 1355.2,-909.4 1349.2,-915.4 1343.2,-915.4 1343.2,-915.4 1079.6,-915.4 1079.6,-915.4 1073.6,-915.4 1067.6,-909.4 1067.6,-903.4 1067.6,-903.4 1067.6,-182.4 1067.6,-182.4 1067.6,-176.4 1073.6,-170.4 1079.6,-170.4"/>
<text text-anchor="middle" x="1087.22" y="-900" font-family="Sans-Serif" font-size="12.00" fill="#2d3436">App</text>
</g>
<g id="clust4" class="cluster">
<title>cluster_Endpoints</title>
<path fill="#ebf3e7" stroke="#aeb6be" d="M1087.6,-350.4C1087.6,-350.4 1335.2,-350.4 1335.2,-350.4 1341.2,-350.4 1347.2,-356.4 1347.2,-362.4 1347.2,-362.4 1347.2,-873.4 1347.2,-873.4 1347.2,-879.4 1341.2,-885.4 1335.2,-885.4 1335.2,-885.4 1087.6,-885.4 1087.6,-885.4 1081.6,-885.4 1075.6,-879.4 1075.6,-873.4 1075.6,-873.4 1075.6,-362.4 1075.6,-362.4 1075.6,-356.4 1081.6,-350.4 1087.6,-350.4"/>
<text text-anchor="middle" x="1112.85" y="-870" font-family="Sans-Serif" font-size="12.00" fill="#2d3436">Endpoints</text>
</g>
<!-- 5698da20749243109a7fbb1c94cf02aa -->
<g id="node1" class="node">
<title>5698da20749243109a7fbb1c94cf02aa</title>
<image xlink:href="C:\Users\Admin\Bayes\Work\Bain\property_friends_real_estate_case\property_friends_real_estate_case\.venv\Lib\site-packages\resources/onprem/database\postgresql.png" width="100.8px" height="100.8px" preserveAspectRatio="xMinYMin meet" x="154.8" y="-812.8"/>
<text text-anchor="middle" x="205.2" y="-696.65" font-family="Sans-Serif" font-size="13.00" fill="#2d3436">PostgreSQL DB</text>
</g>
<!-- d27c0d7a45474f11adf1e3e441ab2de0 -->
<g id="node7" class="node">
<title>d27c0d7a45474f11adf1e3e441ab2de0</title>
<image xlink:href="C:\Users\Admin\Bayes\Work\Bain\property_friends_real_estate_case\property_friends_real_estate_case\assets\luigi.png" width="100.8px" height="53.8435px" preserveAspectRatio="xMinYMin meet" x="309.6" y="-723.322"/>
<text text-anchor="middle" x="360" y="-630.65" font-family="Sans-Serif" font-size="13.00" fill="#2d3436">Luigi Tasks</text>
</g>
<!-- 5698da20749243109a7fbb1c94cf02aa&#45;&gt;d27c0d7a45474f11adf1e3e441ab2de0 -->
<g id="edge3" class="edge">
<title>5698da20749243109a7fbb1c94cf02aa&#45;&gt;d27c0d7a45474f11adf1e3e441ab2de0</title>
<path fill="none" stroke="#7b8894" d="M255.46,-729.4C255.46,-729.4 298.21,-729.4 298.21,-729.4"/>
<polygon fill="#7b8894" stroke="#7b8894" points="298.21,-732.9 308.21,-729.4 298.21,-725.9 298.21,-732.9"/>
</g>
<!-- 5d7827853b5f481a9cd90663c558e6cf -->
<g id="node2" class="node">
<title>5d7827853b5f481a9cd90663c558e6cf</title>
<image xlink:href="C:\Users\Admin\Bayes\Work\Bain\property_friends_real_estate_case\property_friends_real_estate_case\.venv\Lib\site-packages\resources/aws/storage\simple-storage-service-s3.png" width="100.8px" height="100.8px" preserveAspectRatio="xMinYMin meet" x="8.52651e-14" y="-745.8"/>
<text text-anchor="middle" x="50.4" y="-629.65" font-family="Sans-Serif" font-size="13.00" fill="#2d3436">Data Source [.csv]</text>
</g>
<!-- 5d7827853b5f481a9cd90663c558e6cf&#45;&gt;5698da20749243109a7fbb1c94cf02aa -->
<g id="edge1" class="edge">
<title>5d7827853b5f481a9cd90663c558e6cf&#45;&gt;5698da20749243109a7fbb1c94cf02aa</title>
<path fill="none" stroke="#7b8894" stroke-dasharray="5,2" d="M100.66,-728.9C100.66,-728.9 143.41,-728.9 143.41,-728.9"/>
<polygon fill="#7b8894" stroke="#7b8894" points="143.41,-732.4 153.41,-728.9 143.41,-725.4 143.41,-732.4"/>
</g>
<!-- 5d7827853b5f481a9cd90663c558e6cf&#45;&gt;d27c0d7a45474f11adf1e3e441ab2de0 -->
<g id="edge2" class="edge">
<title>5d7827853b5f481a9cd90663c558e6cf&#45;&gt;d27c0d7a45474f11adf1e3e441ab2de0</title>
<path fill="none" stroke="#7b8894" d="M100.49,-661C100.49,-661 298.21,-661 298.21,-661"/>
<polygon fill="#7b8894" stroke="#7b8894" points="298.21,-664.5 308.21,-661 298.21,-657.5 298.21,-664.5"/>
</g>
<!-- dbf535a8f08e4d80acb8a8258018dffd -->
<g id="node3" class="node">
<title>dbf535a8f08e4d80acb8a8258018dffd</title>
<image xlink:href="C:\Users\Admin\Bayes\Work\Bain\property_friends_real_estate_case\property_friends_real_estate_case\.venv\Lib\site-packages\resources/aws/storage\simple-storage-service-s3-bucket.png" width="100.8px" height="100.8px" preserveAspectRatio="xMinYMin meet" x="928.8" y="-656.8"/>
<text text-anchor="middle" x="979.2" y="-540.65" font-family="Sans-Serif" font-size="13.00" fill="#2d3436">MLRuns</text>
</g>
<!-- 812fa59f0d654ddbbfbf35edfcf7f928 -->
<g id="node15" class="node">
<title>812fa59f0d654ddbbfbf35edfcf7f928</title>
<image xlink:href="C:\Users\Admin\Bayes\Work\Bain\property_friends_real_estate_case\property_friends_real_estate_case\.venv\Lib\site-packages\resources/aws/mobile\api-gateway.png" width="100.8px" height="100.8px" preserveAspectRatio="xMinYMin meet" x="1083.6" y="-476.8"/>
<text text-anchor="middle" x="1134" y="-360.65" font-family="Sans-Serif" font-size="13.00" fill="#2d3436">/model&#45;runs</text>
</g>
<!-- dbf535a8f08e4d80acb8a8258018dffd&#45;&gt;812fa59f0d654ddbbfbf35edfcf7f928 -->
<g id="edge15" class="edge">
<title>dbf535a8f08e4d80acb8a8258018dffd&#45;&gt;812fa59f0d654ddbbfbf35edfcf7f928</title>
<path fill="none" stroke="#7b8894" d="M980,-538.11C980,-504.62 980,-471.4 980,-471.4 980,-471.4 1072.49,-471.4 1072.49,-471.4"/>
<polygon fill="#7b8894" stroke="#7b8894" points="1072.49,-474.9 1082.49,-471.4 1072.49,-467.9 1072.49,-474.9"/>
</g>
<!-- 6e590b42f2b64f3da65cf843091554cc -->
<g id="node4" class="node">
<title>6e590b42f2b64f3da65cf843091554cc</title>
<image xlink:href="C:\Users\Admin\Bayes\Work\Bain\property_friends_real_estate_case\property_friends_real_estate_case\.venv\Lib\site-packages\resources/aws/ml\sagemaker-model.png" width="100.8px" height="100.8px" preserveAspectRatio="xMinYMin meet" x="1083.6" y="-1041.8"/>
<text text-anchor="middle" x="1134" y="-925.65" font-family="Sans-Serif" font-size="13.00" fill="#2d3436">Model Artifact [.pkl]</text>
</g>
<!-- 0f855d9cd9c84123aba8b225da4b7cbf -->
<g id="node12" class="node">
<title>0f855d9cd9c84123aba8b225da4b7cbf</title>
<image xlink:href="C:\Users\Admin\Bayes\Work\Bain\property_friends_real_estate_case\property_friends_real_estate_case\.venv\Lib\site-packages\resources/aws/mobile\api-gateway.png" width="100.8px" height="100.8px" preserveAspectRatio="xMinYMin meet" x="1238.4" y="-836.8"/>
<text text-anchor="middle" x="1288.8" y="-720.65" font-family="Sans-Serif" font-size="13.00" fill="#2d3436">/predict</text>
</g>
<!-- 6e590b42f2b64f3da65cf843091554cc&#45;&gt;0f855d9cd9c84123aba8b225da4b7cbf -->
<g id="edge10" class="edge">
<title>6e590b42f2b64f3da65cf843091554cc&#45;&gt;0f855d9cd9c84123aba8b225da4b7cbf</title>
<path fill="none" stroke="#7b8894" d="M1184.32,-991.4C1229.58,-991.4 1289,-991.4 1289,-991.4 1289,-991.4 1289,-866.18 1289,-866.18"/>
<polygon fill="#7b8894" stroke="#7b8894" points="1292.5,-866.18 1289,-856.18 1285.5,-866.18 1292.5,-866.18"/>
</g>
<!-- fbc0947fdf1a487b9a3558a91204e97b -->
<g id="node5" class="node">
<title>fbc0947fdf1a487b9a3558a91204e97b</title>
<image xlink:href="C:\Users\Admin\Bayes\Work\Bain\property_friends_real_estate_case\property_friends_real_estate_case\.venv\Lib\site-packages\resources/aws/storage\simple-storage-service-s3-bucket.png" width="100.8px" height="100.8px" preserveAspectRatio="xMinYMin meet" x="1393.2" y="-769.8"/>
<text text-anchor="middle" x="1443.6" y="-653.65" font-family="Sans-Serif" font-size="13.00" fill="#2d3436">Predict Logs [.json]</text>
</g>
<!-- 0d0c15ffbaab4d4fa76c0122053eb4af -->
<g id="node14" class="node">
<title>0d0c15ffbaab4d4fa76c0122053eb4af</title>
<image xlink:href="C:\Users\Admin\Bayes\Work\Bain\property_friends_real_estate_case\property_friends_real_estate_case\.venv\Lib\site-packages\resources/aws/mobile\api-gateway.png" width="100.8px" height="100.8px" preserveAspectRatio="xMinYMin meet" x="1083.6" y="-656.8"/>
<text text-anchor="middle" x="1134" y="-540.65" font-family="Sans-Serif" font-size="13.00" fill="#2d3436">/predict&#45;logs</text>
</g>
<!-- fbc0947fdf1a487b9a3558a91204e97b&#45;&gt;0d0c15ffbaab4d4fa76c0122053eb4af -->
<g id="edge14" class="edge">
<title>fbc0947fdf1a487b9a3558a91204e97b&#45;&gt;0d0c15ffbaab4d4fa76c0122053eb4af</title>
<path fill="none" stroke="#7b8894" d="M1393.51,-662.9C1393.51,-662.9 1195.79,-662.9 1195.79,-662.9"/>
<polygon fill="#7b8894" stroke="#7b8894" points="1195.79,-659.4 1185.79,-662.9 1195.79,-666.4 1195.79,-659.4"/>
</g>
<!-- 6e8bd5b9fe684d8cab8d1d0e4d4d0ced -->
<g id="node6" class="node">
<title>6e8bd5b9fe684d8cab8d1d0e4d4d0ced</title>
<image xlink:href="C:\Users\Admin\Bayes\Work\Bain\property_friends_real_estate_case\property_friends_real_estate_case\.venv\Lib\site-packages\resources/aws/storage\simple-storage-service-s3-bucket.png" width="100.8px" height="100.8px" preserveAspectRatio="xMinYMin meet" x="464.4" y="-566.8"/>
<text text-anchor="middle" x="514.8" y="-450.65" font-family="Sans-Serif" font-size="13.00" fill="#2d3436">Pipeline Params [.yaml]</text>
</g>
<!-- 66bd41ba99a84bbaa896c022a5ec8cb8 -->
<g id="node9" class="node">
<title>66bd41ba99a84bbaa896c022a5ec8cb8</title>
<image xlink:href="C:\Users\Admin\Bayes\Work\Bain\property_friends_real_estate_case\property_friends_real_estate_case\.venv\Lib\site-packages\resources/aws/analytics\data-pipeline.png" width="100.8px" height="100.8px" preserveAspectRatio="xMinYMin meet" x="619.2" y="-746.8"/>
<text text-anchor="middle" x="669.6" y="-630.65" font-family="Sans-Serif" font-size="13.00" fill="#2d3436">Build Features</text>
</g>
<!-- 6e8bd5b9fe684d8cab8d1d0e4d4d0ced&#45;&gt;66bd41ba99a84bbaa896c022a5ec8cb8 -->
<g id="edge11" class="edge">
<title>6e8bd5b9fe684d8cab8d1d0e4d4d0ced&#45;&gt;66bd41ba99a84bbaa896c022a5ec8cb8</title>
<path fill="none" stroke="#7b8894" d="M565.19,-569.2C610.51,-569.2 670,-569.2 670,-569.2 670,-569.2 670,-616.82 670,-616.82"/>
<polygon fill="#7b8894" stroke="#7b8894" points="666.5,-616.82 670,-626.82 673.5,-616.82 666.5,-616.82"/>
</g>
<!-- deeddf308d33401ca9d1e2b78e1a077f -->
<g id="node10" class="node">
<title>deeddf308d33401ca9d1e2b78e1a077f</title>
<image xlink:href="C:\Users\Admin\Bayes\Work\Bain\property_friends_real_estate_case\property_friends_real_estate_case\.venv\Lib\site-packages\resources/onprem/mlops\mlflow.png" width="100.8px" height="36.6187px" preserveAspectRatio="xMinYMin meet" x="774" y="-714.709"/>
<text text-anchor="middle" x="824.4" y="-630.65" font-family="Sans-Serif" font-size="13.00" fill="#2d3436">Train with MLFlow</text>
</g>
<!-- 6e8bd5b9fe684d8cab8d1d0e4d4d0ced&#45;&gt;deeddf308d33401ca9d1e2b78e1a077f -->
<g id="edge12" class="edge">
<title>6e8bd5b9fe684d8cab8d1d0e4d4d0ced&#45;&gt;deeddf308d33401ca9d1e2b78e1a077f</title>
<path fill="none" stroke="#7b8894" d="M564.98,-553.6C652.78,-553.6 825,-553.6 825,-553.6 825,-553.6 825,-616.83 825,-616.83"/>
<polygon fill="#7b8894" stroke="#7b8894" points="821.5,-616.83 825,-626.83 828.5,-616.83 821.5,-616.83"/>
</g>
<!-- a87f7f370e7543219da36419fa46e9d0 -->
<g id="node8" class="node">
<title>a87f7f370e7543219da36419fa46e9d0</title>
<image xlink:href="C:\Users\Admin\Bayes\Work\Bain\property_friends_real_estate_case\property_friends_real_estate_case\.venv\Lib\site-packages\resources/aws/analytics\data-pipeline.png" width="100.8px" height="100.8px" preserveAspectRatio="xMinYMin meet" x="464.4" y="-746.8"/>
<text text-anchor="middle" x="514.8" y="-630.65" font-family="Sans-Serif" font-size="13.00" fill="#2d3436">Make dataset</text>
</g>
<!-- d27c0d7a45474f11adf1e3e441ab2de0&#45;&gt;a87f7f370e7543219da36419fa46e9d0 -->
<g id="edge6" class="edge">
<title>d27c0d7a45474f11adf1e3e441ab2de0&#45;&gt;a87f7f370e7543219da36419fa46e9d0</title>
<path fill="none" stroke="#7b8894" d="M410.26,-696.4C410.26,-696.4 453.01,-696.4 453.01,-696.4"/>
<polygon fill="#7b8894" stroke="#7b8894" points="453.01,-699.9 463.01,-696.4 453.01,-692.9 453.01,-699.9"/>
</g>
<!-- a87f7f370e7543219da36419fa46e9d0&#45;&gt;66bd41ba99a84bbaa896c022a5ec8cb8 -->
<g id="edge4" class="edge">
<title>a87f7f370e7543219da36419fa46e9d0&#45;&gt;66bd41ba99a84bbaa896c022a5ec8cb8</title>
<path fill="none" stroke="#7b8894" d="M565.06,-696.4C565.06,-696.4 607.81,-696.4 607.81,-696.4"/>
<polygon fill="#7b8894" stroke="#7b8894" points="607.81,-699.9 617.81,-696.4 607.81,-692.9 607.81,-699.9"/>
</g>
<!-- 66bd41ba99a84bbaa896c022a5ec8cb8&#45;&gt;deeddf308d33401ca9d1e2b78e1a077f -->
<g id="edge5" class="edge">
<title>66bd41ba99a84bbaa896c022a5ec8cb8&#45;&gt;deeddf308d33401ca9d1e2b78e1a077f</title>
<path fill="none" stroke="#7b8894" d="M719.86,-696.4C719.86,-696.4 762.61,-696.4 762.61,-696.4"/>
<polygon fill="#7b8894" stroke="#7b8894" points="762.61,-699.9 772.61,-696.4 762.61,-692.9 762.61,-699.9"/>
</g>
<!-- deeddf308d33401ca9d1e2b78e1a077f&#45;&gt;dbf535a8f08e4d80acb8a8258018dffd -->
<g id="edge7" class="edge">
<title>deeddf308d33401ca9d1e2b78e1a077f&#45;&gt;dbf535a8f08e4d80acb8a8258018dffd</title>
<path fill="none" stroke="#7b8894" d="M874.66,-651.4C874.66,-651.4 917.41,-651.4 917.41,-651.4"/>
<polygon fill="#7b8894" stroke="#7b8894" points="917.41,-654.9 927.41,-651.4 917.41,-647.9 917.41,-654.9"/>
</g>
<!-- deeddf308d33401ca9d1e2b78e1a077f&#45;&gt;6e590b42f2b64f3da65cf843091554cc -->
<g id="edge8" class="edge">
<title>deeddf308d33401ca9d1e2b78e1a077f&#45;&gt;6e590b42f2b64f3da65cf843091554cc</title>
<path fill="none" stroke="#7b8894" d="M825,-764.45C825,-851.57 825,-991.4 825,-991.4 825,-991.4 1072.15,-991.4 1072.15,-991.4"/>
<polygon fill="#7b8894" stroke="#7b8894" points="1072.15,-994.9 1082.15,-991.4 1072.15,-987.9 1072.15,-994.9"/>
</g>
<!-- 59394a41edea412cadc6e5d6e1024485 -->
<g id="node11" class="node">
<title>59394a41edea412cadc6e5d6e1024485</title>
<image xlink:href="C:\Users\Admin\Bayes\Work\Bain\property_friends_real_estate_case\property_friends_real_estate_case\.venv\Lib\site-packages\resources/aws/mobile\api-gateway.png" width="100.8px" height="100.8px" preserveAspectRatio="xMinYMin meet" x="1083.6" y="-836.8"/>
<text text-anchor="middle" x="1134" y="-720.65" font-family="Sans-Serif" font-size="13.00" fill="#2d3436">/health</text>
</g>
<!-- 59394a41edea412cadc6e5d6e1024485&#45;&gt;0f855d9cd9c84123aba8b225da4b7cbf -->
<g id="edge9" class="edge">
<title>59394a41edea412cadc6e5d6e1024485&#45;&gt;0f855d9cd9c84123aba8b225da4b7cbf</title>
<path fill="none" stroke="#7b8894" stroke-dasharray="5,2" d="M1184.26,-786.4C1184.26,-786.4 1227.01,-786.4 1227.01,-786.4"/>
<polygon fill="#7b8894" stroke="#7b8894" points="1227.01,-789.9 1237.01,-786.4 1227.01,-782.9 1227.01,-789.9"/>
</g>
<!-- 0f855d9cd9c84123aba8b225da4b7cbf&#45;&gt;fbc0947fdf1a487b9a3558a91204e97b -->
<g id="edge13" class="edge">
<title>0f855d9cd9c84123aba8b225da4b7cbf&#45;&gt;fbc0947fdf1a487b9a3558a91204e97b</title>
<path fill="none" stroke="#7b8894" d="M1339.06,-752.9C1339.06,-752.9 1381.81,-752.9 1381.81,-752.9"/>
<polygon fill="#7b8894" stroke="#7b8894" points="1381.81,-756.4 1391.81,-752.9 1381.81,-749.4 1381.81,-756.4"/>
</g>
<!-- 4b69037558e848b184f4eef25b323929 -->
<g id="node13" class="node">
<title>4b69037558e848b184f4eef25b323929</title>
<image xlink:href="C:\Users\Admin\Bayes\Work\Bain\property_friends_real_estate_case\property_friends_real_estate_case\.venv\Lib\site-packages\resources/programming/framework\fastapi.png" width="100.8px" height="100.8px" preserveAspectRatio="xMinYMin meet" x="1083.6" y="-296.8"/>
<text text-anchor="middle" x="1134" y="-180.65" font-family="Sans-Serif" font-size="13.00" fill="#2d3436">FastAPI</text>
</g>
<!-- 88bbcb2417d449db9c846b4fdb941fe2 -->
<g id="node16" class="node">
<title>88bbcb2417d449db9c846b4fdb941fe2</title>
<image xlink:href="C:\Users\Admin\Bayes\Work\Bain\property_friends_real_estate_case\property_friends_real_estate_case\.venv\Lib\site-packages\resources/aws/storage\simple-storage-service-s3-bucket.png" width="100.8px" height="100.8px" preserveAspectRatio="xMinYMin meet" x="1238.4" y="-144.8"/>
<text text-anchor="middle" x="1288.8" y="-28.65" font-family="Sans-Serif" font-size="13.00" fill="#2d3436">Valid API keys [.json]</text>
</g>
<!-- 4b69037558e848b184f4eef25b323929&#45;&gt;88bbcb2417d449db9c846b4fdb941fe2 -->
<g id="edge16" class="edge">
<title>4b69037558e848b184f4eef25b323929&#45;&gt;88bbcb2417d449db9c846b4fdb941fe2</title>
<path fill="none" stroke="#7b8894" d="M1195.84,-246.4C1195.84,-246.4 1289,-246.4 1289,-246.4 1289,-246.4 1289,-202.87 1289,-162.4"/>
<polygon fill="#7b8894" stroke="#7b8894" points="1195.84,-242.9 1185.84,-246.4 1195.84,-249.9 1195.84,-242.9"/>
</g>
</g>
</svg>
